<?xml version="1.0" encoding="iso-8859-1"?>
<!-- Generator: Adobe Illustrator 19.0.0, SVG Export Plug-In . SVG Version: 6.00 Build 0)  -->
<svg version="1.1" id="Layer_1" xmlns="http://www.w3.org/2000/svg" xmlns:xlink="http://www.w3.org/1999/xlink" x="0px" y="0px"
	 viewBox="0 0 512.002 512.002" style="enable-background:new 0 0 512.002 512.002;" xml:space="preserve">
<path style="fill:#959CB5;" d="M277.423,504.5l119.965-119.965v-19.77c0-18.809-12.268-35.419-30.246-40.951l-81.151-24.969H183.165
	l-81.152,24.969c-17.977,5.531-30.245,22.141-30.245,40.949v71.185c0,4.732,3.837,8.569,8.569,8.569h59.983V504.5H277.423z"/>
<rect x="80.34" y="444.52" style="fill:#F0C087;" width="59.983" height="59.983"/>
<path style="fill:#E6AF78;" d="M234.578,341.69L234.578,341.69c-28.395,0-51.414-23.019-51.414-51.414v-42.845h102.828v42.845
	C285.992,318.671,262.973,341.69,234.578,341.69z"/>
<path style="fill:#D29B6E;" d="M183.165,288.078c15.753,6.888,33.121,10.767,51.414,10.767s35.661-3.879,51.414-10.767V256H183.165
	V288.078z"/>
<path style="fill:#F0C087;" d="M341.69,136.034h-4.284V84.621H131.751v51.414h-4.284c-11.831,0-21.422,9.591-21.422,21.422
	s9.591,21.422,21.422,21.422h4.747c4.369,52.767,48.47,94.259,102.365,94.259s97.996-41.491,102.365-94.259h4.747
	c11.832,0,21.422-9.591,21.422-21.422C363.113,145.625,353.522,136.034,341.69,136.034z"/>
<path style="fill:#E6AF78;" d="M191.733,170.31V84.62H131.75v51.414h-4.284c-11.831,0-21.422,9.591-21.422,21.422
	s9.591,21.422,21.422,21.422h4.747c4.369,52.767,48.47,94.259,102.365,94.259c10.437,0,20.5-1.582,29.991-4.472
	C222.415,255.826,191.733,216.663,191.733,170.31z"/>
<path style="fill:#785546;" d="M333.121,136.034c4.846,0,9.265,1.669,12.853,4.381V76.052c0-19.868-11.289-37.071-27.784-45.631
	C313.489,17.102,300.921,7.5,285.992,7.5h-85.69c-42.593,0-77.121,34.528-77.121,77.121v55.795
	c3.589-2.712,8.008-4.381,12.853-4.381c2.335,0,4.571,0.385,6.663,1.089c4.47,1.505,9.336-0.384,11.088-4.763l9.899-24.748
	c1.38-3.449,4.761-5.619,8.468-5.369c19.186,1.294,79.394,3.633,122.415-13.772c4.768-1.929,9.817,0.541,11.23,5.486
	c2.234,7.818,5.492,19.223,8.268,28.937c2.378,8.324,10.24,13.205,18.897,13.14C333.016,136.035,333.068,136.034,333.121,136.034z"
	/>
<path style="fill:#64463C;" d="M260.285,7.5h-59.983c-42.593,0-77.121,34.528-77.121,77.121v55.795
	c3.589-2.712,8.008-4.381,12.853-4.381c2.335,0,4.572,0.385,6.663,1.089c4.47,1.505,9.336-0.384,11.087-4.764l9.899-24.748
	c1.38-3.449,4.761-5.619,8.467-5.369c4.5,0.303,11.318,0.657,19.581,0.807V76.052C191.733,38.192,222.425,7.5,260.285,7.5z"/>
<path style="fill:#FF507D;" d="M214.322,481.912L214.322,481.912c-30.118-30.118-30.118-78.948,0-109.065l94.259-94.259
	c30.117-30.117,78.948-30.117,109.065,0l0,0c30.117,30.117,30.117,78.948,0,109.065l-94.259,94.259
	C293.269,512.029,244.439,512.029,214.322,481.912z"/>
<circle style="fill:#F0C087;" cx="363.11" cy="333.12" r="42.845"/>
<path style="fill:#D23C69;" d="M257.166,473.343c-30.117-30.117-30.117-78.948,0-109.065l94.259-94.259
	c5.613-5.612,11.876-10.172,18.546-13.692c-21.956-1.949-44.585,5.456-61.391,22.261l-94.259,94.259
	c-30.117,30.117-30.117,78.948,0,109.065c24.506,24.506,61.399,29.066,90.52,13.692C287.449,494.06,270.48,486.655,257.166,473.343z
	"/>
<path style="fill:#E6AF78;" d="M354.239,324.247c12.947-12.947,32.072-15.756,47.835-8.666c-2.073-4.609-4.881-8.971-8.666-12.756
	c-16.732-16.732-43.859-16.732-60.592,0c-16.732,16.732-16.732,43.859,0,60.592c3.786,3.786,8.147,6.593,12.756,8.666
	C338.485,356.32,341.293,337.194,354.239,324.247z"/>
<path style="fill:#7F8499;" d="M134.611,391.232L86.947,332.22c-9.361,7.966-15.179,19.693-15.179,32.544v71.185
	c0,4.732,3.837,8.569,8.569,8.569h59.983v-37.133C140.32,401.507,138.305,395.805,134.611,391.232z"/>
<path style="fill:#E6AF78;" d="M358.108,415.635c-7.473-13.878-21.961-22.532-37.723-22.532h-19.881
	c-20.14,0-38.125,14.724-40.037,34.773c-2.193,22.999,15.833,42.348,38.379,42.348h16.126c3.246,0,6.213,1.834,7.664,4.737
	l14.77,29.539h68.552L358.108,415.635z"/>
<path style="fill:#D29B6E;" d="M285.992,427.379V395.73c-13.631,5.087-24.093,17.119-25.526,32.146
	c-2.193,22.998,15.834,42.348,38.379,42.348h16.127c3.245,0,6.212,1.834,7.664,4.736l14.77,29.54h34.276l-21.94-38.395
	c-7.628-13.349-21.825-21.588-37.2-21.588h-9.412C293.665,444.517,285.992,436.844,285.992,427.379z"/>
<path d="M191.734,145.672c-4.142,0-7.5,3.358-7.5,7.5v8.569c0,4.142,3.358,7.5,7.5,7.5s7.5-3.358,7.5-7.5v-8.569
	C199.234,149.03,195.876,145.672,191.734,145.672z"/>
<path d="M277.423,169.241c4.142,0,7.5-3.358,7.5-7.5v-8.569c0-4.142-3.358-7.5-7.5-7.5s-7.5,3.358-7.5,7.5v8.569
	C269.923,165.884,273.281,169.241,277.423,169.241z"/>
<path d="M265.048,218.949c3.2-2.63,3.662-7.356,1.032-10.556s-7.357-3.662-10.556-1.032c-5.307,4.362-12.941,6.863-20.945,6.863
	s-15.638-2.501-20.945-6.863c-3.201-2.63-7.927-2.167-10.556,1.032c-2.63,3.2-2.168,7.926,1.032,10.556
	c8.062,6.626,18.882,10.275,30.469,10.275S256.986,225.575,265.048,218.949z"/>
<path d="M104.219,330.983l74.245-22.845c4.413,13.799,13.832,25.767,26.708,33.197c1.181,0.681,2.47,1.005,3.742,1.005
	c2.592,0,5.114-1.346,6.503-3.753c2.07-3.588,0.84-8.174-2.748-10.244c-13.573-7.832-22.004-22.418-22.004-38.067v-18.745
	c13.717,5.961,28.623,9.107,43.914,9.107c27.858,0,54.447-10.419,74.869-29.339c18.608-17.239,30.605-40.108,34.224-64.987
	c15.028-1.021,26.942-13.573,26.942-28.855c0-11.553-6.924-21.84-17.138-26.413V76.052c0-21.101-11.154-40.347-29.301-50.898
	C317.582,9.992,302.593,0,285.992,0h-85.689c-46.66,0-84.621,37.961-84.621,84.621v46.424c-10.214,4.573-17.138,14.86-17.138,26.413
	c0,15.282,11.914,27.834,26.942,28.855c3.619,24.879,15.615,47.748,34.223,64.987c4.975,4.609,10.319,8.71,15.956,12.282v26.694
	c0,1.005,0.034,2.006,0.085,3.003l-75.942,23.367c-21.257,6.541-35.54,25.878-35.54,48.119v71.183
	c0,6.152,3.479,11.501,8.569,14.201V504.5c0,4.142,3.358,7.5,7.5,7.5s7.5-3.358,7.5-7.5v-52.483h44.982V504.5
	c0,4.142,3.358,7.5,7.5,7.5s7.5-3.358,7.5-7.5v-97.115c0-5.296-1.75-10.545-4.927-14.783l-22.279-29.706
	c-2.485-3.313-7.186-3.985-10.5-1.5c-3.313,2.485-3.985,7.186-1.5,10.5l22.279,29.705c1.243,1.658,1.928,3.711,1.928,5.783v29.632
	H80.337c-0.59,0-1.069-0.479-1.069-1.069v-71.183C79.268,349.151,89.295,335.575,104.219,330.983z M169.903,240.296
	c-17.54-16.249-28.281-38.28-30.245-62.034c-0.322-3.889-3.572-6.882-7.475-6.882h-4.717c-7.677,0-13.922-6.246-13.922-13.923
	c0-6.406,4.424-11.991,10.589-13.505l19.686-0.331c6.011-0.101,11.414-3.504,14.102-8.88l12.23-24.46
	c0.199-0.397,0.555-0.621,0.961-0.59c10.881,0.752,32.879,1.736,57.938-0.119c31.894-2.361,57.946-8.499,77.434-18.243
	c3.705-1.853,5.207-6.357,3.354-10.062c-1.853-3.705-6.356-5.207-10.062-3.354C257.982,98.809,191.52,96.065,172.147,94.726
	c-6.465-0.446-12.503,3.027-15.412,8.847l-12.23,24.46c-0.179,0.357-0.538,0.584-0.938,0.59l-12.885,0.217V84.621
	c0-38.389,31.232-69.621,69.621-69.621h85.689c11.245,0,21.343,7.201,25.127,17.918c0.634,1.796,1.927,3.283,3.618,4.16
	c14.642,7.599,23.738,22.532,23.738,38.974v60.415c0,3.567,2.512,6.64,6.008,7.35c6.449,1.309,11.13,7.046,11.13,13.64
	c0,7.677-6.246,13.923-13.923,13.923h-4.717c-3.902,0-7.153,2.993-7.475,6.882c-1.965,23.755-12.706,45.786-30.245,62.034
	c-17.64,16.342-40.609,25.342-64.675,25.342S187.543,256.638,169.903,240.296z"/>
<path d="M447.734,333.121c0-22.603-8.802-43.853-24.785-59.836S385.716,248.5,363.113,248.5s-43.853,8.802-59.835,24.785
	l-94.259,94.259c-32.993,32.994-32.993,86.678,0,119.672c16.497,16.497,38.165,24.745,59.835,24.745
	c19.253,0,38.497-6.527,54.123-19.55l7.722,15.444c1.314,2.628,3.962,4.147,6.714,4.147c1.127,0,2.271-0.255,3.348-0.793
	c3.705-1.852,5.207-6.357,3.354-10.062l-14.77-29.54c-2.74-5.479-8.247-8.882-14.373-8.882h-16.126
	c-17.126,0-31.06-13.934-31.06-31.061c0-17.126,13.934-31.06,31.06-31.06h21.539c13.022,0,24.947,7.123,31.12,18.588l47.85,88.864
	c1.964,3.647,6.512,5.011,10.159,3.048c3.647-1.964,5.012-6.512,3.048-10.159l-34.16-63.44l44.547-44.547
	C438.931,376.974,447.734,355.724,447.734,333.121z M252.785,431.664c0,25.398,20.663,46.061,46.06,46.061h16.126
	c0.408,0,0.774,0.227,0.957,0.591l0.116,0.232c-27.275,25.177-69.942,24.538-96.42-1.939c-27.145-27.145-27.145-71.313,0-98.458
	l22.265-22.265c7.249,7.195,21.157,20.451,38.006,33.814C263.927,396.939,252.785,413.019,252.785,431.664z M370.977,423.716
	l-6.265-11.635c-8.793-16.331-25.779-26.477-44.327-26.477h-21.158c-20.452-15.065-38.305-32.005-46.721-40.334l61.378-61.378
	c13.149-13.149,30.633-20.391,49.229-20.391s36.08,7.242,49.229,20.391c13.149,13.15,20.392,30.633,20.392,49.229
	s-7.242,36.08-20.392,49.229L370.977,423.716z"/>
<path d="M398.712,297.522c-19.629-19.629-51.568-19.63-71.198,0c-9.509,9.509-14.746,22.152-14.746,35.599
	c0,13.448,5.237,26.09,14.746,35.599c9.814,9.815,22.707,14.722,35.599,14.722s25.784-4.907,35.599-14.722
	C418.341,349.09,418.341,317.151,398.712,297.522z M388.105,358.113c-13.781,13.781-36.204,13.781-49.985,0
	c-6.676-6.676-10.353-15.552-10.353-24.992c0-9.441,3.677-18.317,10.353-24.993c6.891-6.89,15.941-10.335,24.993-10.335
	c9.051,0,18.102,3.445,24.992,10.335C401.886,321.909,401.886,344.332,388.105,358.113z"/>
<circle cx="351" cy="321" r="7.5"/>
<circle cx="375.25" cy="345.17" r="7.5"/>
<g>
</g>
<g>
</g>
<g>
</g>
<g>
</g>
<g>
</g>
<g>
</g>
<g>
</g>
<g>
</g>
<g>
</g>
<g>
</g>
<g>
</g>
<g>
</g>
<g>
</g>
<g>
</g>
<g>
</g>
</svg>
