<svg height="512pt" viewBox="-11 0 512 512" width="512pt" xmlns="http://www.w3.org/2000/svg"><path d="m490 267c0 89.230469-47.703125 167.320312-119 210.160156-36.816406 22.121094-215.390625 22.058594-252.261719-.160156-71.152343-42.871094-118.738281-120.878906-118.738281-210 0-135.308594 109.691406-245 245-245s245 109.691406 245 245zm0 0" fill="#f87eab"/><path d="m103.984375 416.8125v-36.664062c0-.90625.09375-1.789063.257813-2.648438h-14.40625l29.582031-35.730469v-56.769531c0-8.089844 2.476562-15.613281 6.710937-21.851562-.148437.171874-.3125.328124-.460937.503906l-91.433594 110.445312c-8.175781 9.875-10.183594 21.867188-5.378906 32.085938 4.804687 10.214844 15.328125 16.316406 28.144531 16.316406h48.175781c-.761719-1.746094-1.191406-3.664062-1.191406-5.6875zm0 0" fill="#d9eafc"/><path d="m49.570312 406.183594c-4.804687-10.21875-2.796874-22.210938 5.378907-32.085938l64.46875-77.871094v-11.226562c0-8.105469 2.484375-15.640625 6.734375-21.882812-.160156.179687-.328125.347656-.484375.535156l-91.433594 110.445312c-8.175781 9.875-10.183594 21.867188-5.378906 32.085938 4.804687 10.214844 15.328125 16.316406 28.144531 16.316406h20.714844c-12.816406 0-23.335938-6.101562-28.144532-16.316406zm0 0" fill="#c3ddf4"/><g fill="#d9eafc"><path d="m216 250v-5h-57.582031c-22 0-40 18-40 40v80.851562h17.550781l.175781-.78125c5.457031-24.273437 19.171875-46.320312 38.621094-62.078124 18.226563-14.765626 40.851563-23.386719 64.253906-24.617188-13.128906-2.761719-23.019531-14.433594-23.019531-28.375zm0 0"/><path d="m456.765625 374.097656-91.328125-110.316406c-7.097656-11.257812-19.636719-18.78125-33.855469-18.78125h-57.582031v5c0 13.96875-9.925781 25.660156-23.09375 28.394531 23.300781 1.285157 45.820312 9.890625 63.976562 24.601563 19.449219 15.753906 33.164063 37.800781 38.621094 62.078125l.175782.78125h17.902343v-24.085938l29.578125 35.730469h-15.402344c.160157.859375.253907 1.742188.253907 2.648438v36.664062c0 2.023438-.425781 3.941406-1.1875 5.6875h49.175781c12.816406 0 23.339844-6.101562 28.144531-16.316406 4.804688-10.21875 2.796875-22.210938-5.378906-32.085938zm0 0"/><path d="m349.921875 431.105469c-.300781 0-.597656-.019531-.886719-.054688l-.753906-.082031-.285156.699219c-17.1875 42.117187-57.6875 69.332031-103.171875 69.332031-45.472657 0-85.964844-27.203125-103.160157-69.304688l-.277343-.675781-.726563.054688c-.207031.015625-.390625.03125-.582031.03125h-21.660156v45.695312c36.941406 22.339844 80.261719 35.199219 126.582031 35.199219s89.640625-12.859375 126.582031-35.199219v-45.695312zm0 0"/></g><path d="m135.96875 365.851562.175781-.78125c.777344-3.46875 1.746094-6.882812 2.855469-10.25v-69.820312c0-22 18-40 40-40h-20.582031c-22 0-40 18-40 40v80.851562zm0 0" fill="#c3ddf4"/><path d="m118.417969 431.105469v45.695312c6.65625 4.027344 13.527343 7.738281 20.582031 11.132813v-56.828125zm0 0" fill="#c3ddf4"/><path d="m274 245v5c0 13.96875-9.929688 25.664062-23.101562 28.394531 10.386718.578125 20.613281 2.59375 30.367187 5.972657 8.503906-8.96875 13.734375-21.0625 13.734375-34.367188v-5zm0 0" fill="#85a0dd"/><path d="m216 250v-5h-21v5c0 13.257812 5.195312 25.320312 13.648438 34.277344 9.761718-3.351563 19.992187-5.347656 30.375-5.898438-13.132813-2.761718-23.023438-14.4375-23.023438-28.378906zm0 0" fill="#85a0dd"/><path d="m245 245.6875c-10.445312 0-20.566406-1.851562-30-5.285156v9.597656c0 16.566406 13.433594 30 30 30 16.570312 0 30-13.433594 30-30v-9.597656c-9.433594 3.433594-19.554688 5.285156-30 5.285156zm0 0" fill="#ffaf68"/><path d="m235 250v-4.882812c-6.910156-.785157-13.609375-2.390626-20-4.714844v9.597656c0 16.566406 13.433594 30 30 30 3.507812 0 6.871094-.605469 10-1.714844-11.648438-4.117187-20-15.222656-20-28.285156zm0 0" fill="#f79d59"/><path d="m151.117188 136.039062h6.273437v-4.550781c0-2.207031 1.796875-4 4-4h62.070313c19.4375 0 37.609374-9.515625 48.621093-25.457031.746094-1.082031 1.976563-1.726562 3.289063-1.726562 1.316406 0 2.546875.644531 3.292968 1.726562 11.011719 15.941406 29.1875 25.457031 48.621094 25.457031h1.320313c2.207031 0 4 1.792969 4 4v4.546875h6.277343c3.683594 0 7.109376 1.117188 9.964844 3.027344v-51c0-48.632812-39.425781-88.0625-88.0625-88.0625h-31.921875c-48.632812 0-88.0625 39.429688-88.0625 88.0625v51.25c2.925781-2.054688 6.476563-3.273438 10.316407-3.273438zm0 0" fill="#994334"/><path d="m151.117188 136.039062h6.273437v-4.550781c0-2.207031 1.796875-4 4-4h10.558594v-39.425781c0-48.632812 39.429687-88.0625 88.066406-88.0625h-31.152344c-48.632812 0-88.0625 39.429688-88.0625 88.0625v51.25c2.925781-2.054688 6.476563-3.273438 10.316407-3.273438zm0 0" fill="#7c2e24"/><path d="m157.394531 158.078125v-23.039063h-6.277343c-10.484376 0-18.984376 8.5-18.984376 18.984376v18.988281c0 10.488281 8.5 18.988281 18.984376 18.988281h13.109374c-4.398437-10.4375-6.832031-21.902344-6.832031-33.921875zm0 0" fill="#ffc987"/><path d="m338.882812 135.039062h-6.273437v23.039063c0 12.019531-2.433594 23.484375-6.835937 33.921875h13.109374c10.484376 0 18.984376-8.5 18.984376-18.988281v-18.988281c0-10.484376-8.5-18.984376-18.984376-18.984376zm0 0" fill="#ffaf68"/><path d="m245 246.6875c-48.859375 0-88.605469-39.75-88.605469-88.609375v-26.589844c0-2.761719 2.238281-5 5-5h62.070313c19.105468 0 36.972656-9.355469 47.796875-25.023437.933593-1.355469 2.46875-2.160156 4.109375-2.160156 1.644531 0 3.183594.804687 4.117187 2.15625 10.824219 15.671874 28.691407 25.023437 47.796875 25.023437h1.320313c2.761719 0 5 2.242187 5 5v26.59375c0 48.859375-39.746094 88.609375-88.605469 88.609375zm0 0" fill="#ffc987"/><path d="m177 158.078125v-26.589844c0-2.761719 2.238281-5 5-5h-20.605469c-2.761719 0-5 2.238281-5 5v26.589844c0 48.859375 39.746094 88.609375 88.605469 88.609375 3.484375 0 6.921875-.210938 10.304688-.605469-44.023438-5.121093-78.304688-42.632812-78.304688-88.003906zm0 0" fill="#ffaf68"/><path d="m215.992188 160.1875c0 6.992188-5.667969 12.660156-12.660157 12.660156-6.988281 0-12.65625-5.667968-12.65625-12.660156v-9.492188c0-6.992187 5.667969-12.660156 12.65625-12.660156 6.992188 0 12.660157 5.667969 12.660157 12.660156zm0 0" fill="#1a2b63"/><path d="m299.324219 160.1875c0 6.992188-5.667969 12.660156-12.65625 12.660156-6.992188 0-12.660157-5.667968-12.660157-12.660156v-9.492188c0-6.992187 5.667969-12.660156 12.660157-12.660156 6.988281 0 12.65625 5.667969 12.65625 12.660156zm0 0" fill="#1a2b63"/><path d="m252.5 180.5h-10c-6.894531 0-12.5-5.605469-12.5-12.5v-15c0-4.140625 3.359375-7.5 7.5-7.5 4.144531 0 7.5 3.359375 7.5 7.5v12.5h7.5c4.144531 0 7.5 3.359375 7.5 7.5s-3.355469 7.5-7.5 7.5zm0 0" fill="#bf7e52"/><path d="m244.824219 226.292969c-16.761719 0-31.269531-11.925781-34.492188-28.359375-.796875-4.0625 1.851563-8.003906 5.917969-8.800782 4.066406-.796874 8.003906 1.851563 8.800781 5.917969 1.847657 9.410157 10.164063 16.246094 19.773438 16.246094s17.925781-6.835937 19.773437-16.25c.796875-4.0625 4.730469-6.710937 8.804688-5.914063 4.0625.796876 6.710937 4.738282 5.914062 8.804688-3.222656 16.429688-17.730468 28.355469-34.492187 28.355469zm0 0" fill="#bf7e52"/><path d="m342 423.183594c0-2.507813 1.160156-4.820313 3.1875-6.335938.59375-.445312.949219-1.15625.949219-1.898437 0-.746094-.355469-1.453125-.953125-1.898438-2.023438-1.515625-3.183594-3.824219-3.183594-6.335937 0-2.511719 1.160156-4.820313 3.1875-6.335938.59375-.441406.949219-1.152344.949219-1.898437 0-.742188-.355469-1.453125-.949219-1.898438-2.027344-1.515625-3.1875-3.824219-3.1875-6.335937 0-2.511719 1.160156-4.820313 3.183594-6.339844.597656-.445312.949218-1.152344.949218-1.894531 0-.746094-.351562-1.457031-.949218-1.902344-2.023438-1.515625-3.183594-3.824219-3.183594-6.335937 0-4.367188 3.554688-7.917969 7.921875-7.917969h4.773437c-10.898437-50.667969-55.945312-88.648438-109.871093-88.648438s-98.976563 37.980469-109.875 88.648438h5.128906c4.367187 0 7.921875 3.550781 7.921875 7.917969 0 2.511718-1.160156 4.820312-3.1875 6.335937-.59375.445313-.949219 1.15625-.949219 1.902344 0 .742187.355469 1.449219.949219 1.894531 2.023438 1.519531 3.1875 3.828125 3.1875 6.335938 0 2.511718-1.160156 4.824218-3.1875 6.335937-.59375.449219-.949219 1.160156-.949219 1.902344 0 .746093.355469 1.453125.949219 1.898437 2.023438 1.515625 3.1875 3.824219 3.1875 6.335938 0 2.507812-1.160156 4.820312-3.1875 6.335937-.59375.441407-.949219 1.152344-.949219 1.898438 0 .742187.355469 1.453125.949219 1.898437 2.023438 1.515625 3.1875 3.824219 3.1875 6.335938 0 4.28125-3.414062 7.769531-7.664062 7.90625 16.511718 41.542968 57.066406 70.910156 104.488281 70.910156 47.429687 0 87.988281-29.375 104.492187-70.925781-4.085937-.308594-7.316406-3.726563-7.316406-7.890625zm0 0" fill="#ffd00d"/><path d="m255.214844 277.691406c-3.421875-.316406-6.886719-.484375-10.390625-.484375-53.925781 0-98.972657 37.980469-109.875 88.644531h5.128906c4.367187 0 7.921875 3.554688 7.921875 7.921876 0 2.511718-1.160156 4.820312-3.1875 6.335937-.59375.445313-.949219 1.15625-.949219 1.898437 0 .746094.355469 1.453126.949219 1.898438 2.027344 1.515625 3.1875 3.828125 3.1875 6.335938 0 2.511718-1.160156 4.820312-3.1875 6.335937-.59375.449219-.949219 1.15625-.949219 1.898437 0 .746094.355469 1.457032.953125 1.902344 2.023438 1.515625 3.183594 3.824219 3.183594 6.332032 0 2.511718-1.160156 4.820312-3.1875 6.339843-.59375.441407-.949219 1.152344-.949219 1.894531 0 .746094.355469 1.457032.949219 1.902344 2.027344 1.515625 3.1875 3.824219 3.1875 6.335938 0 4.28125-3.414062 7.769531-7.660156 7.90625 16.507812 41.542968 57.0625 70.910156 104.484375 70.910156 3.503906 0 6.96875-.167969 10.390625-.480469-57.203125-5.246093-102.007813-53.34375-102.007813-111.914062 0-58.574219 44.804688-106.671875 102.007813-111.914063zm0 0" fill="#ffaf10"/><path d="m222.402344 372.738281c-3.515625 0-6.652344-2.480469-7.351563-6.058593-1.492187-7.621094-8.226562-13.152344-16.007812-13.152344-7.777344 0-14.511719 5.535156-16.007813 13.15625-.796875 4.0625-4.738281 6.710937-8.804687 5.914062-4.0625-.796875-6.710938-4.738281-5.914063-8.804687 2.875-14.640625 15.796875-25.265625 30.726563-25.265625 14.9375 0 27.855469 10.628906 30.726562 25.269531.796875 4.0625-1.851562 8.003906-5.917969 8.800781-.488281.09375-.972656.140625-1.449218.140625zm0 0" fill="#293d7c"/><path d="m267.242188 372.738281c-.476563 0-.964844-.046875-1.449219-.140625-4.066407-.796875-6.714844-4.738281-5.914063-8.804687 2.871094-14.640625 15.792969-25.265625 30.722656-25.265625 14.933594 0 27.859376 10.625 30.730469 25.265625.796875 4.066406-1.851562 8.007812-5.917969 8.804687-4.0625.796875-8.003906-1.851562-8.800781-5.917968-1.496093-7.621094-8.230469-13.152344-16.011719-13.152344-7.777343 0-14.511718 5.535156-16.007812 13.15625-.699219 3.574218-3.835938 6.054687-7.351562 6.054687zm0 0" fill="#293d7c"/><path d="m244.824219 463.820312c-26.304688 0-49.070313-18.714843-54.125-44.5-.796875-4.066406 1.851562-8.007812 5.914062-8.804687 4.066407-.792969 8.007813 1.851563 8.804688 5.917969 3.679687 18.765625 20.253906 32.386718 39.40625 32.386718 19.152343 0 35.726562-13.621093 39.40625-32.386718.800781-4.066406 4.730469-6.714844 8.804687-5.914063 4.066406.796875 6.714844 4.738281 5.914063 8.800781-5.058594 25.785157-27.820313 44.5-54.125 44.5zm0 0" fill="#293d7c"/><path d="m187.488281 400.21875c0 9.113281-7.386719 16.5-16.5 16.5s-16.5-7.386719-16.5-16.5 7.386719-16.5 16.5-16.5 16.5 7.386719 16.5 16.5zm0 0" fill="#ef8318"/><path d="m335.511719 400.21875c0 9.113281-7.386719 16.5-16.5 16.5s-16.5-7.386719-16.5-16.5 7.386719-16.5 16.5-16.5 16.5 7.386719 16.5 16.5zm0 0" fill="#ef8318"/><path d="m371.71875 432.105469c8.433594 0 15.296875-6.859375 15.296875-15.292969v-36.664062c0-8.433594-6.863281-15.296876-15.296875-15.296876h-21.796875c-4.917969 0-8.921875 4.003907-8.921875 8.921876 0 2.832031 1.308594 5.429687 3.585938 7.136718.347656.257813.550781.664063.550781 1.097656 0 .433594-.203125.839844-.550781 1.097657-2.277344 1.710937-3.585938 4.3125-3.585938 7.136719 0 2.828124 1.308594 5.433593 3.585938 7.140624.347656.257813.550781.664063.550781 1.097657 0 .429687-.203125.839843-.550781 1.097656-2.277344 1.707031-3.585938 4.308594-3.585938 7.136719s1.308594 5.429687 3.585938 7.136718c.347656.257813.550781.664063.550781 1.097657 0 .433593-.203125.839843-.550781 1.097656-2.277344 1.707031-3.585938 4.308594-3.585938 7.136719 0 4.917968 4.003906 8.921875 8.921875 8.921875zm0 0" fill="#ffc987"/><path d="m358 423.722656c0-2.890625 1.335938-5.546875 3.664062-7.292968.355469-.265626.5625-.679688.5625-1.121094 0-.445313-.207031-.859375-.5625-1.121094-2.328124-1.746094-3.664062-4.40625-3.664062-7.292969 0-2.890625 1.335938-5.546875 3.664062-7.292969.355469-.261718.5625-.679687.5625-1.121093 0-.441407-.207031-.855469-.5625-1.121094-2.328124-1.746094-3.664062-4.402344-3.664062-7.292969s1.335938-5.546875 3.664062-7.292968c.355469-.265626.5625-.679688.5625-1.121094s-.207031-.855469-.5625-1.125c-2.328124-1.742188-3.664062-4.398438-3.664062-7.289063 0-3.757812 2.289062-6.992187 5.542969-8.386719h-13.621094c-4.917969 0-8.921875 4.003907-8.921875 8.921876 0 2.832031 1.308594 5.429687 3.585938 7.136718.347656.257813.550781.664063.550781 1.097656 0 .433594-.203125.839844-.550781 1.097657-2.277344 1.710937-3.585938 4.3125-3.585938 7.136719 0 2.828124 1.308594 5.433593 3.585938 7.140624.347656.257813.550781.664063.550781 1.097657 0 .429687-.203125.839843-.550781 1.097656-2.277344 1.707031-3.585938 4.308594-3.585938 7.136719s1.308594 5.429687 3.585938 7.136718c.347656.257813.550781.664063.550781 1.097657 0 .433593-.203125.839843-.550781 1.097656-2.277344 1.707031-3.585938 4.308594-3.585938 7.136719 0 4.917968 4.003906 8.921875 8.921875 8.921875h13.625c-3.257813-1.390625-5.546875-4.625-5.546875-8.382813zm0 0" fill="#ffaf68"/><path d="m118.28125 432.105469c-8.433594 0-15.296875-6.859375-15.296875-15.292969v-36.664062c0-8.433594 6.863281-15.296876 15.296875-15.296876h21.796875c4.917969 0 8.921875 4.003907 8.921875 8.921876 0 2.832031-1.308594 5.429687-3.589844 7.136718-.34375.257813-.546875.664063-.546875 1.097656 0 .433594.203125.839844.546875 1.097657 2.28125 1.710937 3.589844 4.3125 3.589844 7.136719 0 2.828124-1.308594 5.433593-3.589844 7.140624-.34375.257813-.546875.664063-.546875 1.097657 0 .429687.203125.839843.546875 1.097656 2.28125 1.707031 3.589844 4.308594 3.589844 7.136719s-1.308594 5.429687-3.589844 7.136718c-.34375.257813-.546875.664063-.546875 1.097657 0 .433593.203125.839843.546875 1.097656 2.28125 1.707031 3.589844 4.308594 3.589844 7.136719 0 4.917968-4.003906 8.921875-8.921875 8.921875zm0 0" fill="#ffc987"/><path d="m119.484375 416.8125v-36.664062c0-8.433594 6.863281-15.296876 15.296875-15.296876h-16.5c-8.433594 0-15.296875 6.863282-15.296875 15.296876v36.664062c0 8.433594 6.863281 15.292969 15.296875 15.292969h16.476562c-8.421874-.011719-15.273437-6.867188-15.273437-15.292969zm0 0" fill="#ffaf68"/></svg>