<svg id="Capa_1" enable-background="new 0 0 512 512" height="512" viewBox="0 0 512 512" width="512" xmlns="http://www.w3.org/2000/svg"><g><ellipse cx="56.901" cy="219.214" fill="#ffd3bd" rx="56.901" ry="56.901" transform="matrix(.383 -.924 .924 .383 -167.401 187.894)"/><ellipse cx="455.099" cy="219.214" fill="#ffbe9d" rx="56.901" ry="56.901" transform="matrix(.924 -.383 .383 .924 -49.247 190.846)"/><path d="m397.901 494.855c11.791 0 21.043-10.346 19.463-22.03-10.754-79.516-78.901-140.812-161.364-140.812s-150.61 61.296-161.364 140.811c-1.58 11.684 7.672 22.03 19.463 22.03h283.802z" fill="#8daee1"/><path d="m256 394.742-58.319 38.917c-11.451 7.641-26.991 1.199-29.677-12.302l-13.544-68.082z" fill="#fff"/><path d="m256 394.742 58.319 38.917c11.451 7.641 26.991 1.199 29.677-12.302l13.544-68.082z" fill="#fff"/><path d="m448.047 219.214c0-97.93-85.982-174.095-192.047-174.095s-192.047 76.165-192.047 174.095 85.982 175.528 192.047 175.528 192.047-77.598 192.047-175.528z" fill="#ffd3bd"/><path d="m194.296 54.124c-75.795 22.897-130.343 87.09-130.343 165.09 0 97.93 85.982 175.528 192.047 175.528 27.324 0 53.308-5.147 76.84-14.468-235.584-13.007-202.333-255.069-138.544-326.15z" fill="#ffbe9d"/><g><g fill="#eda1ab"><ellipse cx="145.724" cy="251.45" rx="40.689" ry="32.403"/><ellipse cx="366.276" cy="251.45" rx="40.69" ry="32.403"/></g><g fill="#4e5660"><path d="m169.438 227.757c-4.142 0-7.5-3.358-7.5-7.5v-16.634c0-4.142 3.358-7.5 7.5-7.5s7.5 3.358 7.5 7.5v16.634c0 4.142-3.358 7.5-7.5 7.5z"/><path d="m342.562 227.757c-4.142 0-7.5-3.358-7.5-7.5v-16.634c0-4.142 3.358-7.5 7.5-7.5s7.5 3.358 7.5 7.5v16.634c0 4.142-3.358 7.5-7.5 7.5z"/><path d="m256 266.849c17.526 25.632 57.252 20.201 78.83 9.365 5.135-2.579 4.524-10.069-.931-11.875-13.262-4.391-21.33-16.929-30.522-34.181-9.707-18.219-36.748-18.219-47.377 0-10.629-18.219-37.67-18.219-47.377 0-9.192 17.252-17.26 29.79-30.522 34.181-5.455 1.806-6.067 9.296-.931 11.875 21.578 10.836 61.304 16.267 78.83-9.365z"/></g></g><path d="m407.488 72.465c57.12 0 78.254 84.083 62.801 147.48-4 16.411-24.537 22.012-36.414 10.002-47.876-48.41-129.951-157.482-26.387-157.482z" fill="#4e5660"/><path d="m451.257 94.891c-10.89-13.798-25.482-22.426-43.769-22.426-61.618 0-57.519 38.611-34.009 80.085 34.032-14.155 60.119-33.492 77.778-57.659z" fill="#383c43"/><path d="m411.482 40.693c-133.698 27.542-177.395-22.399-246.851-23.539-32.437-.533-60.284 23.789-63.353 55.413-54.676 3.118-74.724 85.194-59.567 147.378 4 16.411 24.537 22.012 36.414 10.002 22.854-23.11 53.501-60.043 68.027-92.336 72.624 27.411 235.776 18.4 288.225-63.806 10.349-16.219-4.051-36.994-22.895-33.112z" fill="#4e5660"/></g></svg>